<?xml version="1.0" encoding="UTF-8" standalone="no"?>
<!-- Created with Inkscape (http://www.inkscape.org/) -->

<svg
   width="173.23909mm"
   height="78.25338mm"
   viewBox="0 0 173.23909 78.25338"
   version="1.1"
   id="svg2167"
   inkscape:version="1.2.2 (b0a8486541, 2022-12-01)"
   sodipodi:docname="IRL_Logo_Light_blue.svg"
   inkscape:export-filename="IRL_Logo_Light_blue.png"
   inkscape:export-xdpi="150"
   inkscape:export-ydpi="150"
   xmlns:inkscape="http://www.inkscape.org/namespaces/inkscape"
   xmlns:sodipodi="http://sodipodi.sourceforge.net/DTD/sodipodi-0.dtd"
   xmlns="http://www.w3.org/2000/svg"
   xmlns:svg="http://www.w3.org/2000/svg">
  <sodipodi:namedview
     id="namedview2169"
     pagecolor="#ffffff"
     bordercolor="#666666"
     borderopacity="1.0"
     inkscape:showpageshadow="2"
     inkscape:pageopacity="0.0"
     inkscape:pagecheckerboard="true"
     inkscape:deskcolor="#d1d1d1"
     inkscape:document-units="mm"
     showgrid="false"
     inkscape:zoom="1.4142136"
     inkscape:cx="222.03153"
     inkscape:cy="284.96403"
     inkscape:window-width="1720"
     inkscape:window-height="1367"
     inkscape:window-x="1720"
     inkscape:window-y="0"
     inkscape:window-maximized="0"
     inkscape:current-layer="layer1" />
  <defs
     id="defs2164">
    <inkscape:path-effect
       effect="powermask"
       id="path-effect8459"
       is_visible="true"
       lpeversion="1"
       uri="#mask-powermask-path-effect8459"
       invert="false"
       hide_mask="false"
       background="true"
       background_color="#ffffffff" />
    <filter
       id="mask-powermask-path-effect19141_inverse"
       inkscape:label="filtermask-powermask-path-effect19141"
       style="color-interpolation-filters:sRGB"
       height="100"
       width="100"
       x="-50"
       y="-50">
      <feColorMatrix
         id="mask-powermask-path-effect19141_primitive1"
         values="1"
         type="saturate"
         result="fbSourceGraphic" />
      <feColorMatrix
         id="mask-powermask-path-effect19141_primitive2"
         values="-1 0 0 0 1 0 -1 0 0 1 0 0 -1 0 1 0 0 0 1 0 "
         in="fbSourceGraphic" />
    </filter>
  </defs>
  <g
     inkscape:label="Layer 1"
     inkscape:groupmode="layer"
     id="layer1"
     transform="translate(-54.7952,-52.257927)">
    <rect
       style="font-size:14.9084px;line-height:1.05;font-family:Nasalization;-inkscape-font-specification:Nasalization;letter-spacing:0px;word-spacing:0px;display:inline;fill:none;fill-opacity:1;stroke:none;stroke-width:2.15026;stroke-opacity:1"
       id="rect8427"
       width="173.23909"
       height="78.25338"
       x="54.7952"
       y="52.257927"
       inkscape:label="background_backdrop" />
    <rect
       style="font-size:14.9084px;line-height:1.05;font-family:Nasalization;-inkscape-font-specification:Nasalization;letter-spacing:0px;word-spacing:0px;display:inline;fill:#23a1e0;fill-opacity:1;stroke:none;stroke-width:0.26867"
       id="rect8429"
       width="69.715302"
       height="69.714958"
       x="54.7952"
       y="55.99456"
       ry="0"
       inkscape:label="background_gradient"
       inkscape:export-filename="rect8429.png"
       inkscape:export-xdpi="150"
       inkscape:export-ydpi="150" />
    <path
       id="path8431"
       style="font-size:14.9084px;line-height:1.05;font-family:Nasalization;-inkscape-font-specification:Nasalization;letter-spacing:0px;word-spacing:0px;display:inline;fill:none;fill-opacity:1;stroke-width:2.14935"
       d="m 185.89785,61.618765 h -62.47108 c 0.0837,-0.105318 0,58.244535 0,58.244535 l 62.47108,0.28232 c 7.01343,0.0322 12.65978,-4.96726 12.65978,-11.13752 V 72.756384 c 0,-6.170252 -5.64625,-11.137619 -12.65978,-11.137619 z"
       sodipodi:nodetypes="sccssss"
       inkscape:label="background_hole" />
    <g
       id="g8445"
       transform="matrix(1.0746759,0,0,1.0746759,-65.915926,-3.7064423)"
       style="display:inline">
      <g
         id="g8437"
         inkscape:label="robot"
         style="display:inline"
         mask="none">
        <path
           id="path8433"
           mask="none"
           style="font-size:70.5556px;line-height:1.25;font-family:Nasalization;-inkscape-font-specification:Nasalization;letter-spacing:0px;word-spacing:0px;fill:#ffffff;stroke-width:0.264583"
           class="robot_color_1"
           inkscape:label="robot_R"
           d="M 148.12734 64.671601 A 6.8610001 6.8610001 0 0 1 149.56221 68.870435 A 6.8610001 6.8610001 0 0 1 148.16869 73.013009 L 155.03964 73.009643 L 155.5758 73.009162 C 155.58331 73.009158 155.59042 73.009631 155.59792 73.009643 L 157.9267 73.009643 C 159.19466 72.579333 160.25381 71.58931 160.72048 70.233181 C 161.47381 68.043927 160.40199 65.726765 158.28302 64.871637 C 157.34481 64.748488 156.34922 64.683622 155.29353 64.683622 L 148.12734 64.671601 z M 162.91895 66.132441 C 163.56226 67.617771 163.67274 69.339529 163.10264 70.996299 C 162.58034 72.51408 161.56636 73.745543 160.2954 74.571463 C 161.25145 75.427458 161.83448 76.574594 162.07649 77.856671 C 162.46613 79.179644 163.47416 80.238529 164.79621 80.685547 C 166.23919 81.173457 167.82697 80.855522 168.971 79.849819 C 170.03349 78.915803 170.55645 77.525532 170.38616 76.135688 C 170.38596 76.134412 170.38589 76.133117 170.38568 76.131841 C 169.68973 71.807995 167.3084 68.081783 162.91895 66.132441 z M 161.81298 81.823733 C 161.22305 83.580704 159.94801 85.036648 157.82332 85.631151 C 156.69055 86.114408 155.83002 87.091466 155.50367 88.303267 C 155.12394 89.71325 155.52986 91.212013 156.56828 92.238593 C 157.60637 93.26482 159.10956 93.654175 160.51467 93.258969 L 160.51467 93.258488 C 166.55544 91.557681 169.5228 86.882592 170.35298 81.949237 C 168.56491 83.364314 166.16974 83.788092 163.9951 83.052801 C 163.18471 82.778781 162.44805 82.357675 161.81298 81.823733 z M 138.85018 86.023529 L 137.78268 93.893699 L 151.48371 93.893699 L 162.32702 112.27105 L 171.40365 112.27105 L 161.60429 95.533418 C 161.46896 95.581254 161.33161 95.62386 161.19316 95.662768 L 161.19364 95.664691 C 161.09127 95.693524 160.9884 95.718426 160.88541 95.742109 C 158.70726 96.242996 156.40882 95.598502 154.80931 94.017279 C 153.13417 92.361281 152.47676 89.92617 153.08929 87.651708 C 153.24529 87.072452 153.47846 86.526411 153.77595 86.023529 L 138.85018 86.023529 z M 160.51755 93.262816 L 160.5214 93.277722 C 160.52141 93.277239 160.5204 93.268874 160.52044 93.268586 L 160.52044 93.268105 L 160.51755 93.262816 z " />
        <g
           id="g8485"
           style="display:inline;stroke:#000000;stroke-width:0.999999;stroke-opacity:1"
           inkscape:label="robot_gaps"
           transform="translate(-3.4937758)"
           mask="none" />
        <path
           style="display:inline;fill:none;fill-opacity:1;stroke:#ffffff;stroke-width:2.5;stroke-linecap:round;stroke-dasharray:none;stroke-opacity:1"
           id="path8435"
           inkscape:label="robot_gripper"
           class="gripper_color_1"
           transform="rotate(-172.21951)"
           sodipodi:type="arc"
           sodipodi:cx="-150.71361"
           sodipodi:cy="-48.896812"
           sodipodi:rx="3.8605139"
           sodipodi:ry="3.8605139"
           sodipodi:start="0.78539816"
           sodipodi:end="5.4977871"
           sodipodi:arc-type="arc"
           d="m -147.98381,-46.167017 a 3.8605139,3.8605139 0 0 1 -5.45959,0 3.8605139,3.8605139 0 0 1 0,-5.459591 3.8605139,3.8605139 0 0 1 5.45959,0"
           sodipodi:open="true"
           inkscape:transform-center-x="-0.25436188"
           inkscape:transform-center-y="-0.049315832" />
      </g>
      <g
         id="g8443"
         transform="translate(-11.183385,-0.0774747)"
         style="display:inline;fill:#000000;fill-opacity:1;stroke:none"
         inkscape:label="human">
        <path
           style="display:inline;fill:#000000;fill-opacity:1;stroke:none;stroke-width:0.264583px;stroke-linecap:butt;stroke-linejoin:miter;stroke-opacity:1"
           d="m 133.52718,112.34348 7.86992,0.003 5.91494,-43.423015 -9.31466,11.04774 -8.89002,0.0021 z"
           id="path8439"
           sodipodi:nodetypes="cccccc"
           class="human_color_1"
           inkscape:label="human_body" />
        <circle
           style="fill:#000000;fill-opacity:1;stroke:none;stroke-width:2;stroke-opacity:1"
           id="circle8441"
           cx="136.86418"
           cy="68.947815"
           class="human_color_1"
           inkscape:label="human_head"
           r="5.1100001" />
      </g>
    </g>
    <g
       aria-label="Intuitive Robots Lab"
       id="text8453"
       style="font-size:22.9054px;line-height:1.1;font-family:Nasalization;-inkscape-font-specification:Nasalization;letter-spacing:0px;word-spacing:0px;display:inline;stroke-width:0.406509"
       inkscape:label="description">
      <path
         d="m 133.66404,58.521109 v 15.461145 h 2.70284 V 58.521109 Z"
         id="path2966" />
      <path
         d="m 141.65803,61.888203 c -1.21399,0 -1.695,0.458108 -1.695,1.878243 v 10.215808 h 2.42797 v -9.414119 c 0,-0.229054 0.0916,-0.343581 0.29777,-0.343581 h 3.96263 c 2.5425,0 3.64196,1.053648 3.64196,2.954796 v 6.802904 h 2.45088 V 67.17935 c 0,-3.344188 -1.99277,-5.291147 -6.09284,-5.291147 z"
         id="path2968" />
      <path
         d="m 154.94318,61.888203 v 2.336351 h 1.64918 v 5.588917 c 0,3.160945 1.07656,4.168783 3.57325,4.168783 h 2.17601 V 71.76043 h -1.67209 c -1.14527,0 -1.62629,-0.458108 -1.62629,-1.809526 v -5.72635 h 3.34419 v -2.336351 h -3.34419 v -2.863175 h -2.45088 v 2.863175 z"
         id="path2970" />
      <path
         d="m 164.67797,61.888203 v 7.329728 c 0,2.794459 1.78662,4.764323 5.24534,4.764323 h 2.24473 c 3.45871,0 5.24533,-1.969864 5.24533,-4.764323 v -7.329728 h -2.38216 v 7.238106 c 0,1.420135 -1.03074,2.496689 -2.9548,2.496689 h -1.96986 c -1.92405,0 -2.9777,-1.076554 -2.9777,-2.496689 v -7.238106 z"
         id="path2972" />
      <path
         d="m 180.82627,61.888203 v 12.094051 h 2.42797 V 61.888203 Z m 0,-4.558174 v 2.817364 h 2.45087 v -2.817364 z"
         id="path2974" />
      <path
         d="m 185.52186,61.888203 v 2.336351 h 1.64919 v 5.588917 c 0,3.160945 1.07655,4.168783 3.57324,4.168783 h 2.17602 V 71.76043 h -1.6721 c -1.14527,0 -1.62628,-0.458108 -1.62628,-1.809526 v -5.72635 h 3.34419 v -2.336351 h -3.34419 v -2.863175 h -2.45088 v 2.863175 z"
         id="path2976" />
      <path
         d="m 195.32537,61.888203 v 12.094051 h 2.42798 V 61.888203 Z m 0,-4.558174 v 2.817364 h 2.45088 v -2.817364 z"
         id="path2978" />
      <path
         d="m 199.92934,61.888203 4.44365,10.788443 c 0.45811,1.122365 1.35142,1.580473 2.74865,1.580473 1.37432,0 2.26763,-0.435203 2.77155,-1.580473 l 4.6727,-10.788443 h -2.61121 l -4.19169,9.711889 c -0.11453,0.25196 -0.32068,0.366487 -0.64135,0.366487 -0.29777,0 -0.50392,-0.114527 -0.59554,-0.366487 l -4.03135,-9.711889 z"
         id="path2980" />
      <path
         d="m 220.04031,61.888203 c -3.02352,0 -4.2146,1.695 -4.2146,3.98554 v 4.122972 c 0,2.290539 1.19108,3.985539 4.2146,3.985539 h 7.39844 v -2.359256 h -7.39844 c -1.32852,0 -1.85534,-0.710067 -1.85534,-1.672094 v -0.870405 h 5.74925 c 2.9777,0 4.10007,-1.259797 4.10007,-3.481621 0,-2.336351 -1.21399,-3.710675 -4.07716,-3.710675 z m -1.85534,4.008445 c 0,-0.939121 0.52682,-1.672094 1.85534,-1.672094 h 3.89391 c 1.19108,0 1.71791,0.59554 1.71791,1.511756 0,0.893311 -0.48102,1.44304 -1.78662,1.44304 h -5.68054 z"
         id="path2982" />
      <path
         d="m 133.61823,83.717049 v 2.702837 h 8.475 c 1.48885,0 2.1531,0.939122 2.1531,2.038581 0,1.099459 -0.61844,2.153107 -2.1531,2.153107 h -6.02412 c -1.695,0 -2.42798,0.710068 -2.42798,2.450878 v 6.115742 h 2.70284 v -5.588918 c 0,-0.274864 0.13743,-0.389391 0.38939,-0.389391 h 4.03135 l 3.52744,5.978309 h 3.0006 l -3.59615,-6.184458 c 2.35926,-0.664257 3.27548,-2.725743 3.27548,-4.649796 0,-2.473783 -1.48885,-4.626891 -4.97047,-4.626891 z"
         id="path2984" />
      <path
         d="m 153.75209,87.084143 c -3.22966,0 -5.24533,1.969864 -5.24533,6.047025 0,4.077161 2.01567,6.047026 5.24533,6.047026 h 2.5425 c 3.20676,0 5.24534,-1.969865 5.24534,-6.047026 0,-4.077161 -2.03858,-6.047025 -5.24534,-6.047025 z m 2.31345,2.336351 c 2.08439,0 3.02351,1.099459 3.02351,3.710674 0,2.611216 -0.93912,3.68777 -3.02351,3.68777 h -2.08439 c -2.1073,0 -3.02351,-1.076554 -3.02351,-3.68777 0,-2.611215 0.91621,-3.710674 3.02351,-3.710674 z"
         id="path2986" />
      <path
         d="m 164.44891,81.838807 v 12.162767 c 0,3.48162 1.53466,5.17662 4.44364,5.17662 h 3.34419 c 3.20676,0 5.22243,-1.969865 5.22243,-6.047026 0,-4.077161 -2.01567,-6.047025 -5.22243,-6.047025 h -5.35986 v -5.245336 z m 7.53587,7.581687 c 2.1073,0 3.02351,1.099459 3.02351,3.710674 0,2.611216 -0.91621,3.68777 -3.02351,3.68777 h -2.38216 c -1.96986,0 -2.72574,-0.870405 -2.72574,-2.931891 v -4.466553 z"
         id="path2988" />
      <path
         d="m 185.04085,87.084143 c -3.22966,0 -5.24533,1.969864 -5.24533,6.047025 0,4.077161 2.01567,6.047026 5.24533,6.047026 h 2.5425 c 3.20676,0 5.24534,-1.969865 5.24534,-6.047026 0,-4.077161 -2.03858,-6.047025 -5.24534,-6.047025 z m 2.31345,2.336351 c 2.08439,0 3.02351,1.099459 3.02351,3.710674 0,2.611216 -0.93912,3.68777 -3.02351,3.68777 h -2.08439 c -2.1073,0 -3.02351,-1.076554 -3.02351,-3.68777 0,-2.611215 0.91621,-3.710674 3.02351,-3.710674 z"
         id="path2990" />
      <path
         d="m 194.52368,87.084143 v 2.336351 h 1.64919 v 5.588917 c 0,3.160945 1.07655,4.168783 3.57324,4.168783 h 2.17601 V 96.95637 h -1.67209 c -1.14527,0 -1.62629,-0.458108 -1.62629,-1.809526 v -5.72635 h 3.34419 v -2.336351 h -3.34419 v -2.863175 h -2.45087 v 2.863175 z"
         id="path2992" />
      <path
         d="m 207.69428,87.084143 c -2.81736,0 -3.93972,1.351419 -3.93972,3.527431 0,1.855338 0.82459,3.527432 4.16878,3.527432 h 2.86317 c 1.21399,0 1.71791,0.389392 1.71791,1.351419 0,0.939121 -0.45811,1.328513 -1.58047,1.328513 h -7.03196 v 2.359256 h 7.03196 c 2.84026,0 3.96263,-1.511757 3.96263,-3.664864 0,-1.878243 -0.8475,-3.412905 -4.19169,-3.412905 h -2.84027 c -1.35142,0 -1.7179,-0.458108 -1.7179,-1.305607 0,-0.916216 0.4581,-1.374324 1.58047,-1.374324 h 6.68838 v -2.336351 z"
         id="path2994" />
      <path
         d="m 133.5037,108.91299 v 10.12419 c 0,3.09222 1.60338,5.33695 5.70345,5.33695 h 6.16155 v -2.70283 h -6.00122 c -2.42797,0 -3.16094,-1.16818 -3.16094,-2.65703 v -10.10128 z"
         id="path2996" />
      <path
         d="m 148.25477,112.28008 v 2.33635 h 7.23811 c 1.32851,0 1.85534,0.73298 1.85534,1.6721 v 0.91621 h -5.74926 c -2.9777,0 -4.07716,1.28271 -4.07716,3.48162 0,2.29054 1.19108,3.68777 4.05426,3.68777 h 5.65763 c 2.03858,0 2.49669,-0.68716 2.49669,-2.42797 v -5.68054 c 0,-2.29054 -1.19108,-3.98554 -4.2146,-3.98554 z m 8.42919,9.7348 h -5.085 c -1.21398,0 -1.695,-0.57264 -1.695,-1.46595 0,-0.89331 0.45811,-1.42013 1.74081,-1.42013 h 5.70345 v 2.26763 c 0,0.4352 -0.18325,0.61845 -0.66426,0.61845 z"
         id="path2998" />
      <path
         d="m 163.16621,107.03475 v 12.16276 c 0,3.48162 1.53466,5.17662 4.44365,5.17662 h 3.34418 c 3.20676,0 5.22244,-1.96986 5.22244,-6.04702 0,-4.07716 -2.01568,-6.04703 -5.22244,-6.04703 h -5.35986 v -5.24533 z m 7.53587,7.58168 c 2.1073,0 3.02352,1.09946 3.02352,3.71068 0,2.61121 -0.91622,3.68777 -3.02352,3.68777 h -2.38216 c -1.96986,0 -2.72574,-0.87041 -2.72574,-2.93189 v -4.46656 z"
         id="path3000" />
    </g>
  </g>
</svg>
